<svg xmlns="http://www.w3.org/2000/svg" width="512" height="512" viewBox="0 0 512 512">
  <defs>
    <radialGradient id="bg" cx="35%" cy="25%" r="85%">
      <stop offset="0%" stop-color="#f7f1e6"/>
      <stop offset="55%" stop-color="#e9f3ee"/>
      <stop offset="100%" stop-color="#dfe9f6"/>
    </radialGradient>
    <linearGradient id="robe" x1="0" y1="0" x2="1" y2="1">
      <stop offset="0%" stop-color="#c2495a"/>
      <stop offset="100%" stop-color="#8e2f3d"/>
    </linearGradient>
    <linearGradient id="collar" x1="0" y1="0" x2="0" y2="1">
      <stop offset="0%" stop-color="#fff7ee"/>
      <stop offset="100%" stop-color="#efe5da"/>
    </linearGradient>
    <filter id="soft" x="-20%" y="-20%" width="140%" height="140%">
      <feGaussianBlur stdDeviation="0.6"/>
    </filter>
    <clipPath id="clip">
      <circle cx="256" cy="256" r="248"/>
    </clipPath>
  </defs>

  <circle cx="256" cy="256" r="252" fill="#0f172a" opacity="0.06"/>
  <circle cx="256" cy="256" r="248" fill="url(#bg)"/>

  <g clip-path="url(#clip)">
    <g opacity="0.28" filter="url(#soft)">
      <path d="M74 170c42-36 86-52 132-48 46 4 86 26 118 66 24 30 44 44 60 42 16-2 30-14 42-38" fill="none" stroke="#8fb4b3" stroke-width="10" stroke-linecap="round"/>
      <path d="M52 250c44-28 92-38 144-30 52 8 92 34 120 78 20 32 40 48 60 48 20 0 38-12 54-36" fill="none" stroke="#9db5d9" stroke-width="10" stroke-linecap="round"/>
      <path d="M86 332c36-22 78-30 126-22 48 8 84 28 108 62 18 26 34 40 50 42 16 2 32-8 50-30" fill="none" stroke="#a7c7a3" stroke-width="10" stroke-linecap="round"/>
    </g>

    <g transform="translate(0,2)">
      <path d="M156 448c14-54 42-90 82-106 12-5 24-8 36-9 12 1 24 4 36 9 40 16 68 52 82 106" fill="url(#robe)"/>
      <path d="M190 448c10-36 28-58 54-68 8-3 16-5 24-6 8 1 16 3 24 6 26 10 44 32 54 68" fill="#b83f50" opacity="0.65"/>

      <path d="M206 344c16 22 32 36 50 44 18-8 34-22 50-44 6-8 10-16 12-24-38 10-72 10-124 0 2 8 6 16 12 24z" fill="url(#collar)"/>
      <path d="M244 388c4 10 6 20 6 30 0 10-2 18-6 26 4 4 8 6 12 6 4 0 8-2 12-6-4-8-6-16-6-26 0-10 2-20 6-30-4-2-8-3-12-3-4 0-8 1-12 3z" fill="#d7c2b0" opacity="0.55"/>

      <path d="M256 332c-34 0-64-18-82-48-14-24-20-54-14-86 8-50 46-90 96-98 50 8 88 48 96 98 6 32 0 62-14 86-18 30-48 48-82 48z" fill="#f0d8c8"/>
      <path d="M216 228c6 8 16 12 30 12s24-4 30-12c6 8 16 12 30 12s24-4 30-12" fill="none" stroke="#b58f84" stroke-width="6" stroke-linecap="round" opacity="0.35"/>

      <path d="M170 214c-4-52 14-96 54-130 18-16 34-24 48-24s30 8 48 24c40 34 58 78 54 130-22-16-52-26-102-26s-80 10-102 26z" fill="#2b1f1e"/>
      <path d="M198 104c22-22 42-34 58-34 16 0 36 12 58 34-10 6-20 10-30 12-10 2-18 2-28 0-10 2-18 2-28 0-10-2-20-6-30-12z" fill="#3a2a29" opacity="0.85"/>

      <path d="M176 210c14-16 30-28 48-36 18-8 40-12 66-12s48 4 66 12c18 8 34 20 48 36-24-10-52-16-84-16h-60c-32 0-60 6-84 16z" fill="#1f1716" opacity="0.65"/>
      <path d="M206 256c10-10 20-14 30-14s20 4 30 14" fill="none" stroke="#7b4d46" stroke-width="6" stroke-linecap="round" opacity="0.45"/>
      <path d="M296 256c10-10 20-14 30-14s20 4 30 14" fill="none" stroke="#7b4d46" stroke-width="6" stroke-linecap="round" opacity="0.45"/>
      <path d="M250 292c4 4 8 6 12 6s8-2 12-6" fill="none" stroke="#7b4d46" stroke-width="6" stroke-linecap="round" opacity="0.42"/>
      <path d="M236 312c8 10 16 14 20 14s12-4 20-14" fill="none" stroke="#a1505c" stroke-width="8" stroke-linecap="round" opacity="0.45"/>

      <path d="M162 182c-8-10-12-20-12-30 0-18 12-34 30-46 8-6 14-10 18-12-2 10-2 20 0 32 2 12 6 22 12 32-18 6-34 14-48 24z" fill="#261b1a"/>
      <path d="M350 158c6-10 10-20 12-32 2-12 2-22 0-32 4 2 10 6 18 12 18 12 30 28 30 46 0 10-4 20-12 30-14-10-30-18-48-24z" fill="#261b1a"/>

      <path d="M196 162c6-26 18-48 36-66 10-10 18-16 24-18" fill="none" stroke="#4a3432" stroke-width="10" stroke-linecap="round" opacity="0.55"/>
      <path d="M316 162c-6-26-18-48-36-66-10-10-18-16-24-18" fill="none" stroke="#4a3432" stroke-width="10" stroke-linecap="round" opacity="0.55"/>

      <path d="M180 448c8-34 22-58 42-74 12-10 22-16 34-18-2 10-2 20 0 30 2 10 6 18 12 24-8 6-16 12-24 20-16 16-28 34-34 52z" fill="#a23a49" opacity="0.55"/>
      <path d="M332 448c-8-34-22-58-42-74-12-10-22-16-34-18 2 10 2 20 0 30-2 10-6 18-12 24 8 6 16 12 24 20 16 16 28 34 34 52z" fill="#a23a49" opacity="0.55"/>
    </g>

    <g opacity="0.18">
      <path d="M84 92h344v14H84z" fill="#2b1f1e" opacity="0.25"/>
      <path d="M112 76h288v10H112z" fill="#2b1f1e" opacity="0.2"/>
      <circle cx="256" cy="84" r="10" fill="#2b1f1e" opacity="0.18"/>
    </g>
  </g>

  <circle cx="256" cy="256" r="248" fill="none" stroke="#0f172a" opacity="0.08" stroke-width="8"/>
</svg>
